<?xml version="1.0" encoding="UTF-8"?>
<svg width="1200pt" height="1200pt" version="1.1" viewBox="0 0 1200 1200" xmlns="http://www.w3.org/2000/svg">
 <path d="m740.86 152.9c54.281-3.1875 175.36-5.625 196.5 16.312 53.25 55.312 60.141 662.44 34.266 861.79-7.125 54.516-15.609 94.078-39.75 96.469-229.74 22.875-384.47 16.734-417.89 15.422-196.64-7.7812-300-42.75-313.97-74.672-46.547-106.36-24.422-843.98 6.9844-904.6 5.4844-10.641 10.406-11.297 39.516-14.625 57.375-6.6094 116.34-8.6719 190.74-9.5156 2.1562 0 3.9844 0 5.4844-0.09375 0-3.5156 0.046875-7.125 0.42188-10.922 0.1875-1.0781-0.375-2.4844 0.375-3.2344 0.70312-0.65625 1.3594-1.2656 1.9688-1.7812-0.65625-0.98438-1.2656-2.0625-1.875-3.1875-0.28125-0.42188 2.0156-6 5.3906-8.3906 13.969-10.031 198.47-35.625 264.98 5.4844 15.281 9.4688 23.859 22.359 26.859 35.531zm-32.578 11.484c0.1875-8.6719-6.4219-22.781-46.641-31.359-59.297-12.516-149.86-6.5156-190.55 0.46875-1.0781 14.719 3.5156 57.75 93.562 64.969 63.234 5.0625 128.11-12.094 141-25.594 0 0 0-0.09375 0.09375-0.09375-0.75-0.51562-1.4062-1.0312-2.25-1.5469 1.7812-2.1094 3.2812-4.4531 4.7812-6.8438zm-259.87 3.7031c-20.766 0.5625-114.38-1.5938-216.37 12.516-27.047 92.297-42.516 774.66-1.7812 874.03 21.75 18.984 104.02 46.125 270.28 53.953 176.34 8.25 368.58-9 423.24-13.734 44.016-89.016 40.5-826.45-6.9844-905.58-30.797-12.422-132.52-11.625-177.52-9-3 8.625-8.4844 16.219-15.891 21.703-51.094 37.875-239.86 51.75-274.97-33.891zm-159.56 88.781c424.03-17.109 576.52-36.516 599.76 46.594 0.79688 3.1406 1.9219 8.2969 2.3906 14.438 10.734 171.32 12.281 202.74-6.8438 593.81-10.312 212.76-98.766 170.44-407.9 169.4-95.25-0.28125-201.66 12.984-213.28-103.5-9.8438-97.5-3.5625-497.9 12.188-708.24 0.1875-2.2969 0.9375-4.5469 2.1094-6.5156 3.75-5.9062 4.875-4.6406 11.578-6.6094zm562.92 628.78c2.0156-36.281 4.4531-87.562 7.875-162.19 10.219-220.36 8.3438-259.08 0-403.45-3.6562-64.781-158.63-49.922-557.11-36.375-13.406 201.61-19.781 656.72-4.0312 711.98 18.141 63.75 91.125 51.656 207.61 52.641 105.42 0.84375 179.29 5.3906 230.63 2.5781-1.9688-6.9844-3.5156-22.453-3.4688-22.688 1.7344-5.25 6.6094-9.0469 8.25-14.297 4.0781 3.6562 10.125 4.7344 14.203 8.4844 0.14062 0.046875 6.75 15 8.4375 20.906 0.375 1.3594 0.75 3 1.125 4.7812 9.0938-1.4062 17.203-3.1875 24.469-5.625-4.5-4.7812-6.8906-9.75-11.531-18.516-4.0781-7.7344 1.0312-7.7812 2.0625-16.359 8.5781 1.2188 9.9844-3.5156 16.359 2.4375 5.7188 5.1562 13.266 11.766 17.203 16.922 0.51562 0.70312 1.0312 1.4531 1.5469 2.1094 3.5156-2.9062 6.75-6.1406 9.6094-9.8438-7.2656-12.422-8.3906-13.406-16.359-28.5-4.0312-7.7812 1.125-7.7812 2.3906-16.406 5.3438 1.3594 10.875 1.2188 16.219 2.625 1.6406 0.375 10.219 9.8906 11.016 10.875 0.46875 0.46875 0.84375 0.98438 1.2656 1.5 1.875-6.2812 3.4688-12.094 4.8281-19.406-0.60938-0.70312-1.2656-1.3125-1.9688-1.9688-2.0156-1.7812-11.531-8.625-21.609-19.406-5.7656-6.2344-3.0469-7.3594-4.1719-19.5 5.4844 0.1875 10.875-1.5 16.266-1.3125 0.46875 0 13.359 7.7344 14.484 8.4375 0.375 0.1875 0.65625 0.375 1.0312 0.5625 0.46875-5.3906 0.89062-11.438 1.3594-18.281-3.4688-2.1562-11.156-7.125-33.891-24.75-11.391-8.7656 4.4062-7.5 11.672-19.969 7.2188 3.375 15.938 7.125 24.234 12zm-452.68-213.89c12.891-18.047 29.062-32.859 59.016-59.016 1.1719-1.0312 1.5 0 20.625 0-0.375 6.6562-0.23438 13.406-0.51562 20.109-0.09375 1.125-33.703 32.625-56.625 65.297-16.453 23.625-41.812 1.9688-68.438-24.75-1.6406-1.6406-4.3125-2.6719-4.9219-5.0156-1.5-6.2344 0.60938-12.984-0.89062-19.172 6.4219 1.2656 13.266-1.8281 19.688-0.5625 1.5 0.32812 15.234 13.453 32.062 23.109zm419.29-9.4219c-4.9219 4.5469-9.1406 9.7969-14.109 14.391 0 0-91.781 3.6094-148.87 2.4844-10.922-0.23438-10.922-0.1875-138.66-4.3125-1.6406-0.046875-1.125-0.9375-14.906-13.547 6-2.25 7.5469-11.391 13.5-13.641 3.1875-1.125 79.406-2.25 86.391-2.3438 62.484-0.84375 93.984 1.4062 200.86 2.9062 0.51562 0.09375 1.0312-0.28125 1.4062 0 5.0156 4.4531 9.375 9.6094 14.391 14.062zm-466.18-161.58c1.6406-4.875-11.812-7.6406-11.812-7.6406 8.0625-14.484 4.8281-21.375 17.812-19.359 7.125 1.125 24.188 11.484 32.531 16.219 0.84375 0.42188 2.1562 0.51562 2.4844 1.4062 0.42188 1.3594 0.79688 2.625 1.1719 3.9844 2.25-1.875 4.0781-3.4688 7.875-7.6406 2.625-2.9531 14.438-16.125 33.75-36 6.75-7.0781 11.953-16.266 20.578-21 6-3.375 14.484 1.5469 20.531-1.8281-2.625 6.375 3.2344 14.25 0.60938 20.625 0 0.09375-38.766 48.562-54.234 64.969-1.9219 2.1094-15.422 13.406-20.25 14.859-10.359 2.9062-15.422-3.8438-51.047-28.594zm464.16 341.72c-6.1406 3.2812-8.7656 11.484-15 14.766-0.09375 0.09375-80.859 5.7656-124.74 6.375-52.406 0.65625-82.641-3-156.79-9.8906-12.188-1.125-14.719-2.3438-14.062-14.484 1.125-20.906 13.359-9.9844 160.36-9.2812 59.109 0.28125 134.02-1.0781 134.11-1.0781 6.4688 2.8594 9.75 10.734 16.125 13.594zm5.3906-339.24c-180.52 8.0156-180-8.0156-250.74-9.6562-26.672-0.60938-53.766 3-53.812 2.9062-5.3438-3.6094-10.125-7.875-15.469-11.484 4.5-4.5 6.9844-10.875 11.484-15.422 0.98438-0.9375 27.422-4.2188 29.766-4.5 67.5-8.3438 115.73 10.547 276.52 9.7969 17.859-0.046875 0.84375 10.594 2.25 28.359zm-345.05 284.02c0.65625 6.7031 1.875 13.266 2.625 19.875 0.046874 0.51562-19.688 29.109-21.375 31.641-8.4375 12.188-56.062 90.375-102.38 7.0781-0.60938-1.125-1.9688-2.0156-1.8281-3.2344 0.84375-6.375 3.7031-12.375 4.4531-18.75 6.0469 2.1094 12.656 2.3906 18.75 4.4062 0 0 12.141 17.578 21.141 21.844 0.75 0.375 1.5469 0.75 2.3906 0.84375 0.75 0 0.28125 0.42188 0.75 1.0312 0.28125-0.28125 0-0.98438 0.28125-1.3594 1.5-1.6406 4.6875 1.5938 30.844-30.984 11.906-14.672 11.906-14.625 23.906-29.062 1.0781-1.3125 1.5-0.32812 20.438-3.3281zm-6.6094-661.03 0.046876-0.23438-0.14063 0.09375z" fill-rule="evenodd"/>
</svg>
