<?xml version="1.0" encoding="UTF-8"?>
<svg width="1200pt" height="1200pt" version="1.1" viewBox="0 0 1200 1200" xmlns="http://www.w3.org/2000/svg">
 <path d="m695.81 1100.3h-454.4c-39.656 0-71.906-32.25-71.906-71.906v-784.36c0-39.656 32.25-71.906 71.906-71.906h122.21c10.359 0 18.75 8.3906 18.75 18.75s-8.3906 18.75-18.75 18.75h-122.21c-18.984 0-34.406 15.422-34.406 34.406v784.31c0 18.984 15.422 34.406 34.406 34.406h454.4c10.359 0 18.75 8.3906 18.75 18.75s-8.3906 18.797-18.75 18.797z" fill="#9fe"/>
 <path d="m878.86 771.94c-10.359 0-18.75-8.3906-18.75-18.75v-509.11c0-18.984-15.422-34.406-34.406-34.406h-122.26c-10.359 0-18.75-8.3906-18.75-18.75s8.3906-18.75 18.75-18.75h122.26c39.656 0 71.906 32.25 71.906 71.906v509.11c0 10.359-8.3906 18.75-18.75 18.75z" fill="#9fe"/>
 <path d="m639.61 1019.1h-320.48c-39.656 0-71.906-32.25-71.906-71.906v-621.89c0-39.656 32.25-71.906 71.906-71.906h44.484c10.359 0 18.75 8.3906 18.75 18.75 0 10.359-8.3906 18.75-18.75 18.75l-44.484-0.046874c-18.984 0-34.406 15.422-34.406 34.406v621.89c0 18.984 15.422 34.406 34.406 34.406h320.48c10.359 0 18.75 8.3906 18.75 18.75s-8.3906 18.797-18.75 18.797z" fill="#9fe"/>
 <path d="m801.1 763.69c-10.359 0-18.75-8.3906-18.75-18.75v-419.63c0-18.984-15.422-34.406-34.406-34.406h-44.484c-10.359 0-18.75-8.3906-18.75-18.75s8.3906-18.75 18.75-18.75h44.484c39.656 0 71.906 32.25 71.906 71.906v419.63c0 10.359-8.3906 18.75-18.75 18.75z" fill="#9fe"/>
 <path d="m703.5 325.31h-339.89c-10.359 0-18.75-8.3906-18.75-18.75v-150.05c0-10.359 8.3906-18.75 18.75-18.75h68.906c8.8125-47.672 50.719-83.859 100.88-83.859s92.062 36.188 100.88 83.859h69.141c10.359 0 18.75 8.3906 18.75 18.75v150.05c0.09375 10.359-8.3438 18.75-18.656 18.75zm-321.14-37.453h302.39v-112.59h-67.453c-10.359 0-18.75-8.3906-18.75-18.75 0-35.906-29.203-65.109-65.109-65.109-35.859 0-65.109 29.203-65.109 65.109 0 10.359-8.3906 18.75-18.75 18.75h-67.219l0.046876 112.59z" fill="#9fe"/>
 <path d="m351.89 500.9-25.781-25.781c-7.3125-7.3125-7.3125-19.172 0-26.531 7.3125-7.3125 19.172-7.3125 26.531 0l12.516 12.516 61.125-61.125c7.3125-7.3125 19.172-7.3125 26.531 0 7.3125 7.3125 7.3125 19.172 0 26.531l-74.391 74.391c-7.2188 7.2188-19.031 7.4062-26.531 0z" fill="#9fe"/>
 <path d="m728.02 435h-217.45c-10.359 0-18.75-8.3906-18.75-18.75s8.3906-18.75 18.75-18.75h217.45c10.359 0 18.75 8.3906 18.75 18.75 0.046875 10.359-8.3438 18.75-18.75 18.75z" fill="#9fe"/>
 <path d="m728.02 503.39h-217.45c-10.359 0-18.75-8.3906-18.75-18.75s8.3906-18.75 18.75-18.75h217.45c10.359 0 18.75 8.3906 18.75 18.75 0.046875 10.359-8.3438 18.75-18.75 18.75z" fill="#9fe"/>
 <path d="m365.16 699.19c-4.9688 0-9.75-1.9688-13.266-5.4844l-25.781-25.781c-7.3125-7.3125-7.3125-19.172 0-26.531 7.3125-7.3125 19.172-7.3125 26.531 0l12.516 12.516 61.125-61.125c7.3125-7.3125 19.172-7.3125 26.531 0 7.3125 7.3125 7.3125 19.172 0 26.531l-74.391 74.391c-3.4688 3.5156-8.25 5.4844-13.266 5.4844z" fill="#9fe"/>
 <path d="m728.02 627.84h-217.45c-10.359 0-18.75-8.3906-18.75-18.75s8.3906-18.75 18.75-18.75h217.45c10.359 0 18.75 8.3906 18.75 18.75 0.046875 10.312-8.3438 18.75-18.75 18.75z" fill="#9fe"/>
 <path d="m728.02 696.19h-217.45c-10.359 0-18.75-8.3906-18.75-18.75s8.3906-18.75 18.75-18.75h217.45c10.359 0 18.75 8.3906 18.75 18.75s-8.3438 18.75-18.75 18.75z" fill="#9fe"/>
 <path d="m351.89 886.55-25.781-25.781c-7.3125-7.3125-7.3125-19.172 0-26.531 7.3125-7.3125 19.172-7.3125 26.531 0l12.516 12.516 61.125-61.125c7.3125-7.3125 19.172-7.3125 26.531 0 7.3125 7.3125 7.3125 19.172 0 26.531l-74.391 74.391c-7.3125 7.3125-19.219 7.3125-26.531 0z" fill="#9fe"/>
 <path d="m582.84 820.64h-72.281c-10.359 0-18.75-8.3906-18.75-18.75s8.3906-18.75 18.75-18.75h72.281c10.359 0 18.75 8.3906 18.75 18.75s-8.3906 18.75-18.75 18.75z" fill="#9fe"/>
 <path d="m564.24 889.03h-53.672c-10.359 0-18.75-8.3906-18.75-18.75s8.3906-18.75 18.75-18.75h53.672c10.359 0 18.75 8.3906 18.75 18.75s-8.3906 18.75-18.75 18.75z" fill="#9fe"/>
 <path d="m755.21 1028-54.797-54.75c-7.3125-7.3125-7.3125-19.172 0-26.531 7.3125-7.3125 19.172-7.3125 26.531 0l41.531 41.531 144.79-144.79c7.3125-7.3125 19.219-7.3125 26.531 0s7.3125 19.172 0 26.531l-158.06 158.02c-7.3594 7.3125-19.125 7.3594-26.531 0z" fill="#9fe"/>
 <path d="m626.21 1017.6c-58.453-138.42 43.359-292.31 193.87-292.31 116.72 0 210.42 94.688 210.42 210.42 0 56.062-22.078 109.22-61.641 148.78-105.23 105.23-284.44 70.688-342.66-66.891zm193.87-254.86c-95.344 0-172.92 77.578-172.92 172.92s77.578 172.92 172.92 172.92 172.92-77.578 172.92-172.92-77.531-172.92-172.92-172.92z" fill="#9fe"/>
</svg>
