<?xml version="1.0" encoding="UTF-8"?>
<svg width="1200pt" height="1200pt" version="1.1" viewBox="0 0 1200 1200" xmlns="http://www.w3.org/2000/svg">
 <g fill="#00f4cf">
  <path d="m600 1200c-330.82 0-600-269.18-600-600s269.18-600 600-600 600 269.18 600 600-269.18 600-600 600zm0-1129.4c-291.98 0-529.43 237.45-529.43 529.43s237.45 529.43 529.43 529.43 529.43-237.45 529.43-529.43-237.45-529.43-529.43-529.43z"/>
  <path d="m591.38 849.68c-11.773 16.949-35.25 21.148-52.199 9.375-16.949-11.773-21.148-35.25-9.375-52.199l317.48-456.52c11.773-17.023 35.25-21.148 52.199-9.375 16.949 11.773 21.148 35.25 9.375 52.199z"/>
  <path d="m580.27 798.45c16.426 12.602 19.574 36.074 6.8984 52.574-12.602 16.426-36.148 19.574-52.574 6.8984l-235.5-180.67c-16.426-12.602-19.578-36.074-6.9023-52.574 12.602-16.426 36.148-19.5 52.574-6.8984z"/>
 </g>
</svg>
