<?xml version="1.0" encoding="UTF-8"?>
<svg width="1200pt" height="1200pt" version="1.1" viewBox="0 0 1200 1200" xmlns="http://www.w3.org/2000/svg">
 <path d="m364.08 477.12c-15.398-15.379-36.273-24.012-58.035-24-21.762 0.007812-42.629 8.6602-58.016 24.055-15.383 15.391-24.027 36.262-24.027 58.023s8.6445 42.633 24.027 58.027c15.387 15.391 36.254 24.043 58.016 24.055 21.762 0.007812 42.637-8.625 58.035-24 15.418-15.398 24.082-36.293 24.082-58.082 0-21.789-8.6641-42.684-24.082-58.078zm-2.6367 158.88c-34.488 18.957-76.273 18.957-110.76 0-27.848 11.102-51.742 30.273-68.613 55.059-16.871 24.781-25.949 54.043-26.066 84.02v14.523c97.898 29.004 202.1 29.004 300 0v-14.523c-0.10938-29.965-9.168-59.215-26.016-83.996s-40.719-43.961-68.543-55.082zm-55.441-216c29.879 0.10156 58.543 11.848 79.902 32.742 21.363 20.891 33.738 49.289 34.504 79.156 0.76562 29.871-10.145 58.863-30.406 80.82 29.617 15.473 54.445 38.738 71.809 67.289 17.359 28.551 26.598 61.297 26.711 94.711v26.641c0.007813 3.4766-1.0938 6.8633-3.1445 9.668-2.0469 2.8086-4.9414 4.8867-8.2539 5.9336-55.328 17.691-113.04 26.84-171.12 27.117-57.773-0.19141-115.18-9.1328-170.28-26.52-3.4648-0.94922-6.5195-3.0156-8.6875-5.8828-2.168-2.8633-3.332-6.3633-3.3125-9.957v-26.641c0.11328-33.414 9.3516-66.16 26.715-94.711 17.359-28.551 42.191-51.816 71.805-67.289-20.402-21.918-31.434-50.945-30.746-80.883 0.69141-29.938 13.047-58.426 34.438-79.383 21.391-20.961 50.125-32.734 80.07-32.812zm664.44-214.68c14.715 0.0625 28.809 5.9375 39.215 16.344s16.281 24.5 16.344 39.215v583.68c-0.0625 14.707-5.9414 28.789-16.352 39.176-10.406 10.387-24.504 16.234-39.207 16.266h-822.24c-14.691-0.03125-28.777-5.8828-39.168-16.273-10.387-10.391-16.238-24.473-16.27-39.168v-583.68c0.03125-14.703 5.8789-28.801 16.266-39.207 10.387-10.41 24.469-16.289 39.172-16.352zm-796.44 727.44h796.44c23.371-0.066407 45.77-9.3789 62.297-25.906 16.527-16.527 25.84-38.922 25.902-62.297v-544.56h3.2383c26.879 0 45.359 27.602 45.359 55.441v583.68c0 27.84-18.48 55.559-45.359 55.559h-842.52c-26.879 0-45.359-27.719-45.359-55.559zm884.64-665.52h3.2383c45.359 0 78.121 42.48 78.121 88.199v583.68c0 45.84-32.762 88.199-78.121 88.199h-842.52c-45.238 0-78-42.359-78-88.199v-6.7227c-22.113-1.7461-42.762-11.754-57.836-28.027-15.074-16.277-23.473-37.629-23.523-59.812v-583.68c0.0625-23.371 9.375-45.77 25.902-62.297 16.527-16.527 38.926-25.84 62.297-25.902h822.24c23.383 0.03125 45.797 9.3359 62.332 25.867 16.531 16.535 25.836 38.949 25.867 62.332zm-117.36 18.48h-334.44v82.078l334.44 0.003906zm-350.76-32.758c-4.3477-0.03125-8.5312 1.6719-11.617 4.7383-3.0859 3.0625-4.8242 7.2305-4.8242 11.582v114.72c0 4.3477 1.7383 8.5195 4.8242 11.582 3.0859 3.0664 7.2695 4.7695 11.617 4.7383h367.08c4.3477 0.03125 8.5312-1.6719 11.617-4.7383 3.0859-3.0625 4.8203-7.2344 4.8203-11.582v-114.72c0-4.3516-1.7344-8.5195-4.8203-11.582-3.0859-3.0664-7.2695-4.7695-11.617-4.7383zm0 253.92 367.08-0.003906c5.8281 0 11.215-3.1094 14.133-8.1602 2.9141-5.0469 2.9141-11.27 0-16.32-2.918-5.0469-8.3047-8.1602-14.133-8.1602h-367.08c-5.832 0-11.219 3.1133-14.133 8.1602-2.9141 5.0508-2.9141 11.273 0 16.32 2.9141 5.0508 8.3008 8.1602 14.133 8.1602zm0 106.44 367.08-0.003907c5.8281 0 11.215-3.1094 14.133-8.1602 2.9141-5.0508 2.9141-11.27 0-16.32-2.918-5.0508-8.3047-8.1602-14.133-8.1602h-367.08c-5.832 0-11.219 3.1094-14.133 8.1602-2.9141 5.0508-2.9141 11.27 0 16.32 2.9141 5.0508 8.3008 8.1602 14.133 8.1602zm0 106.56 367.08-0.003906c4.5859 0.39453 9.1289-1.1562 12.52-4.2695s5.3203-7.5039 5.3203-12.109-1.9297-8.9961-5.3203-12.109-7.9336-4.6641-12.52-4.2695h-367.08c-4.5859-0.39453-9.1289 1.1562-12.52 4.2695-3.3945 3.1133-5.3242 7.5039-5.3242 12.109s1.9297 8.9961 5.3242 12.109c3.3906 3.1133 7.9336 4.6641 12.52 4.2695zm0 106.44 367.08-0.003907c4.5859 0.39453 9.1289-1.1562 12.52-4.2695s5.3203-7.5078 5.3203-12.109c0-4.6055-1.9297-9-5.3203-12.113s-7.9336-4.6602-12.52-4.2695h-367.08c-4.5859-0.39062-9.1289 1.1562-12.52 4.2695-3.3945 3.1133-5.3242 7.5078-5.3242 12.113 0 4.6016 1.9297 8.9961 5.3242 12.109 3.3906 3.1133 7.9336 4.6641 12.52 4.2695z" fill-rule="evenodd"/>
</svg>
