<?xml version="1.0" encoding="UTF-8"?>
<svg width="1200pt" height="1200pt" version="1.1" viewBox="0 0 1200 1200" xmlns="http://www.w3.org/2000/svg">
 <path d="m1022.5 93.75h-454.97c-46.172 0-83.766 37.594-83.766 83.766v176.26h-273.79c-64.078 0-116.25 52.125-116.25 116.25v552.52c0 46.172 37.594 83.766 83.766 83.766h454.97c46.172 0 83.766-37.594 83.766-83.766v-65.016c0-10.359-8.3906-18.75-18.75-18.75s-18.75 8.3906-18.75 18.75v65.016c0 25.5-20.766 46.266-46.266 46.266l-454.92-0.046876c-25.5 0-46.266-20.766-46.266-46.266v-552.52c0-43.453 35.297-78.75 78.75-78.75s78.75 35.344 78.75 78.75v260.02c0 64.125 52.125 116.25 116.25 116.25 2.6719 0 5.1562-0.60938 7.7344-0.79688v0.51563h23.391c0.46875 0.046874 0.89062 0.28125 1.3594 0.28125h585c46.172 0 83.766-37.594 83.766-83.766v-584.95c0-46.172-37.594-83.766-83.766-83.766zm-696.24 636.24v-260.02c0-30.469-12.047-57.984-31.266-78.75h188.76v338.76c0 43.453-35.344 78.75-78.75 78.75-43.453 0-78.75-35.344-78.75-78.75zm742.5 32.484c0 25.5-20.766 46.266-46.266 46.266h-532.5c19.219-20.766 31.266-48.281 31.266-78.75v-552.47c0-25.5 20.766-46.266 46.266-46.266h454.97c25.5 0 46.266 20.766 46.266 46.266v585zm-92.484-487.5c0 10.359-8.3906 18.75-18.75 18.75h-325.03c-10.359 0-18.75-8.3906-18.75-18.75s8.3906-18.75 18.75-18.75h325.03c10.359 0 18.75 8.3906 18.75 18.75zm0 129.98c0 10.359-8.3906 18.75-18.75 18.75h-325.03c-10.359 0-18.75-8.3906-18.75-18.75s8.3906-18.75 18.75-18.75h325.03c10.359 0 18.75 8.3906 18.75 18.75zm0 129.98c0 10.359-8.3906 18.75-18.75 18.75h-325.03c-10.359 0-18.75-8.3906-18.75-18.75s8.3906-18.75 18.75-18.75h325.03c10.359 0 18.75 8.3906 18.75 18.75zm0 129.98c0 10.359-8.3906 18.75-18.75 18.75h-325.03c-10.359 0-18.75-8.3906-18.75-18.75s8.3906-18.75 18.75-18.75h325.03c10.359 0 18.75 8.3906 18.75 18.75z"/>
</svg>
