<?xml version="1.0" encoding="UTF-8"?>
<svg width="1200pt" height="1200pt" version="1.1" viewBox="0 0 1200 1200" xmlns="http://www.w3.org/2000/svg">
 <path d="m376.78 385.22c13.219 0 22.781-10.781 22.781-22.781l0.046875-133.22c0-34.781 28.781-63.609 63.609-63.609h436.78c36 0 64.781 28.781 64.781 63.609v740.39c0 36-28.781 64.781-64.781 64.781h-435.61c-34.781 0-63.609-28.781-63.609-64.781v-133.22c0-13.219-10.781-22.781-22.781-22.781s-22.781 10.781-22.781 22.781v133.22c0 61.219 49.219 110.39 109.22 110.39h435.56c61.219 0 110.39-49.219 110.39-110.39v-740.39c0-60-49.219-109.22-110.39-109.22h-435.61c-60 0-109.22 49.219-109.22 109.22v133.22c-1.1719 13.172 9.6094 22.781 21.609 22.781z"/>
 <path d="m213.61 622.78h489.61l-136.82 136.82c-8.3906 8.3906-8.3906 22.781 0 32.391 4.7812 4.7812 10.781 7.2188 15.609 7.2188 4.7812 0 12-2.3906 15.609-7.2188l175.22-175.22s0-1.2188 1.2188-1.2188c1.2188-2.3906 3.6094-3.6094 4.7812-6 1.2188-2.3906 1.2188-6 1.2188-8.3906s0-6-1.2188-8.3906-2.3906-4.7812-4.7812-7.2188l-175.26-177.56c-8.3906-8.3906-22.781-8.3906-32.391 0-8.3906 8.3906-8.3906 22.781 0 32.391l136.78 136.78-489.56 0.046875c-13.219 0-22.781 10.781-22.781 22.781-0.046875 12 9.5625 22.781 22.781 22.781z"/>
</svg>
