<?xml version="1.0" encoding="UTF-8"?>
<svg width="1200pt" height="1200pt" version="1.1" viewBox="0 0 1200 1200" xmlns="http://www.w3.org/2000/svg">
 <path d="m517.92 646.45v91.688c0.79688 20.297-6.7031 40.031-20.766 54.703-14.062 14.625-33.516 22.922-53.812 22.922s-39.75-8.2969-53.812-22.922c-14.109-14.672-21.562-34.406-20.766-54.703v-91.688c-10.078-9-18.516-19.734-24.844-31.688-18.281-34.828-17.062-76.688 3.2812-110.34s56.812-54.234 96.141-54.234 75.797 20.578 96.141 54.234 21.562 75.516 3.2812 110.34c-6.3281 11.953-14.766 22.688-24.844 31.688zm-50.297-12c-0.046875-8.8594 4.5-17.062 12-21.75 7.7812-5.5781 14.109-12.891 18.516-21.328 11.203-21.516 8.8594-47.578-6-66.703-14.859-19.172-39.516-27.938-63.094-22.406-23.625 5.4844-41.859 24.234-46.734 48-4.8281 23.719 4.5938 48.141 24.141 62.438 7.5 4.6406 12.094 12.891 12 21.75v103.69c0 13.219 10.734 24 24 24 13.219 0 24-10.781 24-24v-103.69zm579.37 252h-476.39c-11.203-0.09375-21.984 4.2188-30 12-4.5938 4.5938-8.0625 10.172-10.219 16.312-1.5469 4.5-2.3438 9.2344-2.3906 14.016v118.45c0.046875 23.438 19.031 42.422 42.469 42.469h476.39c23.438-0.046875 42.422-19.031 42.516-42.469v-118.45c-0.14062-23.391-19.125-42.281-42.516-42.328zm-476.39-50.297h205.31v-404.16c-0.14062-27.844-22.688-50.391-50.531-50.531h-564c-27.984-0.046875-50.719 22.547-50.859 50.531v399.71c0.14062 27.844 22.641 50.391 50.531 50.531h329.48c4.0312-6.7031 8.9062-12.797 14.531-18.234 17.344-17.438 40.922-27.234 65.531-27.234zm270.14 104.53h-0.046875c5.7656-3.9844 12.938-5.3438 19.781-3.8438 6.8438 1.5469 12.703 5.9062 16.219 11.953 3.4688 6.0938 4.2656 13.312 2.2031 20.016-2.1094 6.7031-6.8906 12.188-13.219 15.188l-6.8438 3.9375 6.8438 3.9375v0.046875c11.25 7.2188 14.859 21.984 8.2031 33.609-6.6562 11.578-21.281 15.938-33.188 9.8438l-6.7031-3.375v7.9219c-0.89062 13.219-11.906 23.438-25.125 23.438-13.266 0-24.234-10.219-25.172-23.438v-7.9219l-6.8438 3.9375c-5.7656 3.75-12.797 4.9219-19.453 3.2812-6.7031-1.6406-12.375-5.9062-15.797-11.859s-4.2656-13.078-2.2969-19.641c1.9219-6.5625 6.5156-12.094 12.609-15.188l6.8438-3.9375-6.8438-4.5938c-6.0938-3.1406-10.688-8.625-12.609-15.188-1.9688-6.6094-1.125-13.688 2.2969-19.641s9.0938-10.219 15.797-11.859c6.6562-1.6406 13.688-0.46875 19.453 3.2344l6.8438 3.9375v-7.9219 0.046875c0.9375-13.219 11.906-23.484 25.172-23.484 13.219 0 24.234 10.266 25.125 23.484v7.9219l6.7031-3.9375zm165.84 0h-0.046875c11.953-7.0312 27.375-3.0469 34.406 8.9531 7.0312 11.953 3 27.328-8.9531 34.359l-6.9375 3.9375 6.9375 3.9375v0.046875c11.25 7.2188 14.859 21.984 8.2031 33.609-6.6562 11.578-21.234 15.938-33.141 9.8438l-7.3594-3.375v7.9219c-0.89062 13.219-11.859 23.438-25.125 23.438-13.219 0-24.234-10.219-25.125-23.438v-7.9219l-6.8438 3.9375c-11.906 6.0938-26.531 1.7812-33.188-9.7969-6.6562-11.625-3.0469-26.391 8.2031-33.609l6.8438-3.9375-6.8438-4.5938c-6.0938-3.1406-10.641-8.625-12.609-15.188-1.9688-6.6094-1.125-13.688 2.2969-19.641s9.1406-10.219 15.797-11.859 13.734-0.46875 19.5 3.2344l6.8438 3.9375v-7.9219 0.046875c0.89062-13.219 11.906-23.484 25.125-23.484 13.266 0 24.234 10.266 25.125 23.484v7.9219l6.8438-3.9375zm-331.55 0h-0.046875c5.7656-3.9844 12.938-5.3438 19.781-3.8438 6.7969 1.5469 12.703 5.9062 16.172 11.953 3.5156 6.0938 4.3125 13.312 2.2031 20.016-2.0625 6.7031-6.8438 12.188-13.219 15.188l-6.8438 3.9375 6.8438 3.9375v0.046875c11.297 7.2188 14.906 21.984 8.25 33.609-6.7031 11.578-21.281 15.938-33.188 9.8438l-6.8438-3.375v7.9219c-0.89062 13.219-11.906 23.438-25.125 23.438-13.266 0-24.234-10.219-25.172-23.438v-7.9219l-6.8438 3.9375h0.046875c-11.906 5.7656-26.156 1.3125-32.719-10.125-6.5156-11.438-3.0938-25.969 7.875-33.281l6.8438-3.9375-6.8438-4.5938c-10.969-7.3125-14.391-21.891-7.875-33.328 6.5625-11.438 20.812-15.844 32.719-10.125l6.8438 3.9375v-7.9219l-0.046875 0.046875c0.9375-13.219 11.906-23.484 25.172-23.484 13.219 0 24.234 10.266 25.125 23.484v7.9219l6.8438-3.9375zm-493.6-610.08h-20.391c-26.859 0-52.641 10.688-71.578 29.719-18.984 19.031-29.578 44.812-29.484 71.672v399.71c0.1875 55.594 45.234 100.64 100.78 100.83h316.78v114.7h0.046874c0.14063 51.281 41.719 92.766 93 92.766h476.39c51.281 0 92.859-41.484 93-92.766v-118.45c-0.1875-51.094-41.625-92.484-92.766-92.625h-220.92v-404.16c-0.14062-55.594-45.188-100.69-100.78-100.78h-20.391v-8.7656c-2.0156-92.25-52.359-176.63-132.56-222.19s-178.5-45.562-258.71 0c-80.25 45.562-130.6 129.94-132.56 222.19v8.7656zm132.71 0h-82.453v-8.7656c1.7812-74.391 42.516-142.4 107.25-179.11 64.734-36.703 144-36.703 208.78 0 64.734 36.703 105.47 104.72 107.2 179.11v8.7656h-82.406v-8.7656c-2.1562-69.797-59.344-125.29-129.19-125.29-69.844 0-127.08 55.5-129.19 125.29zm208.08 0h-157.78v-8.7656c1.6406-42.375 36.469-75.891 78.891-75.891s77.25 33.516 78.891 75.891z" fill-rule="evenodd"/>
</svg>
