<?xml version="1.0" encoding="UTF-8"?>
<svg width="1200pt" height="1200pt" version="1.1" viewBox="0 0 1200 1200" xmlns="http://www.w3.org/2000/svg">
 <g>
  <path d="m735.79 181.31 47.801 100.94c11.664 24.629 34.762 41.422 61.789 44.914l110.53 13.93-20.559 109.83c-5.0039 26.734 3.8047 53.852 23.566 72.539l81.188 76.293-81.188 76.785c-19.762 18.688-28.57 45.801-23.57 72.535l20.844 109.44-110.82 14.32c-27.027 3.4922-50.125 20.281-61.789 44.914l-47.336 100.79-98.031-53.59c-11.688-6.3867-24.902-9.7617-38.219-9.7617-13.312 0-26.527 3.375-38.211 9.7617l-97.574 53.738-47.801-100.94c-11.664-24.629-34.762-41.418-61.789-44.91l-110.53-13.93 20.559-109.83c5.0039-26.734-3.8047-53.852-23.566-72.539l-81.191-76.293 81.195-76.789c19.758-18.688 28.57-45.805 23.566-72.535l-20.84-109.44 110.82-14.32c27.027-3.4922 50.125-20.281 61.789-44.914l47.648-100.62 97.723 53.418c11.684 6.3867 24.898 9.7617 38.211 9.7617 13.316 0 26.527-3.375 38.211-9.7617l97.574-53.738m-271.83-39.82c-14.805 0-29.078 8.3164-35.891 22.699l-47.801 100.94c-5.7812 12.203-17.371 20.633-30.766 22.363l-110.82 14.32c-22.598 2.9219-38.098 24.238-33.906 46.637l20.555 109.83c2.4805 13.25-1.9414 26.852-11.734 36.117l-81.191 76.785c-16.547 15.648-16.547 41.988 0 57.637l81.191 76.781c9.7969 9.2617 14.215 22.867 11.734 36.117l-20.559 109.83c-4.1914 22.398 11.305 43.715 33.902 46.637l110.82 14.324c13.391 1.7305 24.984 10.156 30.766 22.363l47.801 100.94c6.8086 14.383 21.082 22.699 35.891 22.699 6.4141 0 12.934-1.5625 18.984-4.8711l98.039-53.59c5.9297-3.2422 12.477-4.8633 19.027-4.8633s13.098 1.6211 19.027 4.8594l98.031 53.59c6.0547 3.3086 12.57 4.8711 18.988 4.8711 14.805 0 29.078-8.3164 35.891-22.699l47.801-100.94c5.7812-12.203 17.371-20.633 30.766-22.363l110.82-14.32c22.598-2.9219 38.098-24.238 33.902-46.637l-20.555-109.83c-2.4805-13.25 1.9414-26.852 11.734-36.117l81.191-76.785c16.547-15.648 16.547-41.988 0-57.637l-81.188-76.781c-9.7969-9.2617-14.215-22.867-11.734-36.117l20.559-109.83c4.1914-22.398-11.305-43.715-33.902-46.637l-110.82-14.324c-13.391-1.7305-24.984-10.156-30.766-22.363l-47.809-100.94c-6.8086-14.383-21.082-22.699-35.891-22.699-6.418 0-12.934 1.5625-18.984 4.8711l-98.039 53.59c-5.9258 3.2422-12.477 4.8594-19.023 4.8594-6.5508 0-13.098-1.6211-19.027-4.8594l-98.031-53.59c-6.0508-3.3086-12.566-4.8711-18.984-4.8711z"/>
  <path d="m465.88 514.1h-21.797v134.88l-90.234-134.88h-23.32v171.8h21.797v-135l90.234 135h23.32z"/>
  <path d="m628.77 514.1h-124.22v171.8h128.2v-20.273h-105.47v-58.477h95.039v-20.156h-95.039v-52.617h101.48z"/>
  <path d="m869.47 514.1h-22.852l-26.953 110.39c-3.5156 14.062-6.3672 26.523-8.5547 37.383-2.7344-18.984-7.1875-39.258-13.359-60.82l-24.609-86.953h-27.422l-32.695 116.02c-0.78125 2.8125-3.3594 13.398-7.7344 31.758-2.0312-11.641-4.4531-23.359-7.2656-35.156l-26.133-112.62h-23.32l45.586 171.8h23.203l36.445-130.9c1.5625-5.5469 3.2422-12.266 5.0391-20.156 0.54688 2.5 2.3438 9.2188 5.3906 20.156l36.211 130.9h21.914z"/>
 </g>
</svg>
