<?xml version="1.0" encoding="UTF-8"?>
<svg width="1200pt" height="1200pt" version="1.1" viewBox="0 0 1200 1200" xmlns="http://www.w3.org/2000/svg">
 <g>
  <path d="m185.62 1014.4c-110.62-110.62-171.56-257.81-171.56-414.38s60.938-303.75 171.56-414.38 257.81-171.56 414.38-171.56 303.75 60.938 414.38 171.56 171.56 257.81 171.56 414.38-60.938 303.75-171.56 414.38-257.81 171.56-414.38 171.56-303.75-60.938-414.38-171.56zm-124.69-414.38c0 297.19 241.88 539.06 539.06 539.06s539.06-241.88 539.06-539.06-241.88-539.06-539.06-539.06-539.06 241.88-539.06 539.06z"/>
  <path d="m861.56 600-466.88 269.53 100.31-266.48-100.31-272.58z"/>
 </g>
</svg>
