<?xml version="1.0" encoding="UTF-8"?>
<svg width="1200pt" height="1200pt" version="1.1" viewBox="0 0 1200 1200" xmlns="http://www.w3.org/2000/svg">
 <g>
  <path d="m705.08 364.88c-23.812-11.625-52.547-1.7578-64.207 22.043l-82.266 168.28-8.625-8.9648c-18.387-19.113-48.785-19.676-67.863-1.3008-19.102 18.387-19.688 48.773-1.3008 67.863l56.203 58.395c9.1172 9.4805 21.633 14.719 34.582 14.719 2.4727 0 4.9688-0.1875 7.4531-0.58594 15.469-2.4258 28.793-12.258 35.672-26.332l112.39-229.91c11.637-23.812 1.7695-52.559-22.043-64.207z"/>
  <path d="m813.33 204h-426.66c-87.152 0-169.08 33.305-230.71 93.773-61.883 60.715-95.961 141.57-95.961 227.66 0 177.23 146.54 321.42 326.67 321.42h392.07l237.96 142.34c7.582 4.5352 16.109 6.8086 24.637 6.8086 8.1641 0 16.328-2.0742 23.676-6.2461 15.035-8.5195 24.324-24.469 24.324-41.754v-238.28c13.645-31.02 50.668-121.07 50.668-184.29 0-177.23-146.54-321.43-326.67-321.43zm184.44 475.28c-2.918 6.3164-4.4336 13.207-4.4336 20.156v163.92l-176.7-105.69c-7.4453-4.4531-15.961-6.8086-24.637-6.8086h-405.34c-127.19 0-230.67-101.12-230.67-225.42 0-60.105 23.867-116.61 67.195-159.14 43.566-42.75 101.62-66.293 163.47-66.293h426.67c127.19 0 230.66 101.13 230.66 225.43 0 39.199-28.355 115.17-46.23 153.84z"/>
 </g>
</svg>
