<?xml version="1.0" encoding="UTF-8"?>
<svg width="1200pt" height="1200pt" version="1.1" viewBox="0 0 1200 1200" xmlns="http://www.w3.org/2000/svg">
 <g>
  <path d="m600 1185.9c-156.56 0-303.75-60.938-414.38-171.56s-171.56-257.81-171.56-414.38 60.938-303.75 171.56-414.38 257.81-171.56 414.38-171.56 303.75 60.938 414.38 171.56 171.56 257.81 171.56 414.38-60.938 303.75-171.56 414.38-257.81 171.56-414.38 171.56zm0-1148.4c-310.08 0-562.5 252.42-562.5 562.5s252.42 562.5 562.5 562.5 562.5-252.42 562.5-562.5-252.42-562.5-562.5-562.5z"/>
  <path d="m779.53 365.62-87.188 236.95 87.188 231.8-405.94-234.38z"/>
 </g>
</svg>
