<?xml version="1.0" encoding="UTF-8"?>
<svg width="1200pt" height="1200pt" version="1.1" viewBox="0 0 1200 1200" xmlns="http://www.w3.org/2000/svg">
 <g fill="#fbcfe7">
  <path d="m600 1200c-330.82 0-600-269.18-600-600s269.18-600 600-600 600 269.18 600 600-269.18 600-600 600zm0-1129.4c-291.98 0-529.43 237.45-529.43 529.43s237.45 529.43 529.43 529.43 529.43-237.45 529.43-529.43-237.45-529.43-529.43-529.43z"/>
  <path d="m797.77 745.35c14.625 14.625 14.625 38.398-0.074219 53.023-14.625 14.625-38.398 14.551-53.023-0.074219l-342.45-343.65c-14.625-14.699-14.625-38.398 0.074219-53.098 14.699-14.551 38.398-14.551 53.023 0.14844z"/>
  <path d="m402.23 745.35c-14.625 14.625-14.625 38.398 0.074219 53.023 14.625 14.625 38.398 14.551 53.023-0.074219l342.38-343.73c14.625-14.699 14.625-38.398-0.074219-53.102-14.699-14.473-38.324-14.473-52.949 0.22656z"/>
 </g>
</svg>
