<?xml version="1.0" encoding="UTF-8"?>
<svg width="1200pt" height="1200pt" version="1.1" viewBox="0 0 1200 1200" xmlns="http://www.w3.org/2000/svg">
 <g>
  <path d="m151.2 182.4h603.6v42h-603.6z"/>
  <path d="m151.2 297.6h603.6v42h-603.6z"/>
  <path d="m151.2 415.2h301.2v42h-301.2z"/>
  <path d="m151.2 531.6h218.4v42h-218.4z"/>
  <path d="m874.8 414v-390h-844.8v1152s753.6-1.1992 754.8-1.1992c212.4 0 386.4-172.8 386.4-386.4-1.1992-181.2-127.2-333.6-296.4-374.4zm94.801 115.2-430.8 464.4c-46.801-55.199-74.398-127.2-74.398-205.2 0-176.4 144-320.4 320.4-320.4 68.398 1.1953 133.2 22.797 184.8 61.195zm-897.6 604.8v-1068h760.8v340.8c-15.602-2.3984-32.398-3.6016-48-3.6016-212.4 0-386.4 172.8-386.4 386.4 0 150 86.398 280.8 211.2 344.4zm712.8-25.199c-74.398 0-144-26.398-198-69.602l433.2-468c52.801 57.602 85.199 133.2 85.199 217.2-1.1992 177.6-144 320.4-320.4 320.4z"/>
 </g>
</svg>
