<?xml version="1.0" encoding="UTF-8"?>
<svg width="1200pt" height="1200pt" version="1.1" viewBox="0 0 1200 1200" xmlns="http://www.w3.org/2000/svg">
 <g>
  <path d="m487.5 712.5c20.699 0 37.5-16.801 37.5-37.5 0-35.758 39.242-75 75-75s75 39.242 75 75c0 20.699 16.801 37.5 37.5 37.5s37.5-16.801 37.5-37.5c0-77.102-72.898-150-150-150s-150 72.898-150 150c0 20.699 16.801 37.5 37.5 37.5z"/>
  <path d="m412.5 412.5c9.9375 0 19.5-3.9375 26.438-10.875 7.125-7.125 11.062-16.688 11.062-26.625s-3.9375-19.5-11.062-26.438c-13.875-14.062-39-14.062-52.875 0-7.125 6.9375-11.062 16.5-11.062 26.438s3.9375 19.5 11.062 26.625c6.9375 6.9375 16.5 10.875 26.438 10.875z"/>
  <path d="m787.5 412.5c9.75 0 19.5-3.9375 26.625-11.062 6.9375-6.9375 10.875-16.688 10.875-26.438s-3.9375-19.5-11.062-26.625c-13.875-13.875-39-13.875-52.875 0.1875-7.125 6.9375-11.062 16.5-11.062 26.438s3.9375 19.5 11.062 26.625c6.9375 6.9375 16.688 10.875 26.438 10.875z"/>
  <path d="m0 881.25c0 20.699 16.801 37.5 37.5 37.5h262.5v187.5c0 14.645 8.5312 27.957 21.824 34.07 5.0273 2.3047 10.352 3.4297 15.676 3.4297 8.793 0 17.492-3.0938 24.414-9.0195l251.96-215.98h548.62c20.699 0 37.5-16.801 37.5-37.5v-787.5c0-20.699-16.801-37.5-37.5-37.5h-1125c-20.699 0-37.5 16.801-37.5 37.5zm75-750h1050v712.5h-525c-8.9609 0-17.605 3.207-24.414 9.0195l-200.59 171.94v-143.46c0-20.699-16.801-37.5-37.5-37.5h-262.5z"/>
 </g>
</svg>
