<?xml version="1.0" encoding="UTF-8"?>
<svg width="1200pt" height="1200pt" version="1.1" viewBox="0 0 1200 1200" xmlns="http://www.w3.org/2000/svg">
 <path d="m941.63 419.27-544.81-417.47c-6.6094-4.957-19.371 0.60156-28.23 12.312-9.0117 11.715-11.113 25.527-4.6562 30.633l544.81 417.47c6.457 4.957 19.223-0.75 28.23-12.465 9.0117-11.715 11.113-25.379 4.6562-30.484z" fill="#fbcfe7"/>
 <path d="m567.71 108.87 236.06 180.95 21.027-57.062-201.83-154.82z" fill="#fbcfe7"/>
 <path d="m254.61 483.7 70.43 716.3h478.29l72.98-716.3zm439.25 142.51c0-30.035 45.652-30.035 45.652 0v440.75c0 30.035-45.652 30.035-45.652 0zm-100.76 0c0-30.035 45.652-30.035 45.652 0v440.75c0 30.035-45.652 30.035-45.652 0zm-201.53 0c0-30.035 45.652-30.035 45.652 0v440.75c0 30.035-45.652 30.035-45.652 0zm100.76 0c0-30.035 45.652-30.035 45.652 0v440.75c0 30.035-45.652 30.035-45.652 0z" fill="#fbcfe7"/>
 <path d="m326.99 284.42 100.01 151.22 151.52-63.523-119.69-164.13z" fill="#fbcfe7"/>
</svg>
